2014001_C4_05_grf
version=1
nRows=24
nColumns=19
inDegrees=no
endheader
time	ground_force_1_vx	ground_force_1_vy	ground_force_1_vz	ground_force_1_px	ground_force_1_py	ground_force_1_pz	ground_force_1_mx	ground_force_1_my	ground_force_1_mz	ground_force_2_vx	ground_force_2_vy	ground_force_2_vz	ground_force_2_px	ground_force_2_py	ground_force_2_pz	ground_force_2_mx	ground_force_2_my	ground_force_2_mz
      0.78000000	    -38.25349733	    521.79121971	     45.07157505	     -0.11282879	     -0.00200000	      0.13750765	      0.00000000	      0.85743984	      0.00000000	      0.00000000	      0.00000000	      0.00000000	      0.00000000	      0.00000000	      0.00000000	      0.00000000	      0.00000000	      0.00000000
      0.78100000	    -37.79394738	    519.13323998	     44.54661012	     -0.11209875	     -0.00200000	      0.13743251	      0.00000000	      0.81772621	      0.00000000	      0.00000000	      0.00000000	      0.00000000	      0.00000000	      0.00000000	      0.00000000	      0.00000000	      0.00000000	      0.00000000
      0.78200000	    -37.34130412	    516.51835442	     44.01961267	     -0.11136908	     -0.00200000	      0.13736005	      0.00000000	      0.77841614	      0.00000000	      0.00000000	      0.00000000	      0.00000000	      0.00000000	      0.00000000	      0.00000000	      0.00000000	      0.00000000	      0.00000000
      0.78300000	    -36.89726628	    513.95800710	     43.49093884	     -0.11064016	     -0.00200000	      0.13729086	      0.00000000	      0.73965036	      0.00000000	      0.00000000	      0.00000000	      0.00000000	      0.00000000	      0.00000000	      0.00000000	      0.00000000	      0.00000000	      0.00000000
      0.78400000	    -36.46009043	    511.44176722	     42.96161234	     -0.10991204	     -0.00200000	      0.13722422	      0.00000000	      0.70135262	      0.00000000	      0.00000000	      0.00000000	      0.00000000	      0.00000000	      0.00000000	      0.00000000	      0.00000000	      0.00000000	      0.00000000
      0.78500000	    -36.03146225	    508.98122787	     42.43231863	     -0.10918522	     -0.00200000	      0.13716067	      0.00000000	      0.66367870	      0.00000000	      0.00000000	      0.00000000	      0.00000000	      0.00000000	      0.00000000	      0.00000000	      0.00000000	      0.00000000	      0.00000000
      0.78600000	    -35.60966626	    506.56563044	     41.90371037	     -0.10845965	     -0.00200000	      0.13709950	      0.00000000	      0.62653182	      0.00000000	      0.00000000	      0.00000000	      0.00000000	      0.00000000	      0.00000000	      0.00000000	      0.00000000	      0.00000000	      0.00000000
      0.78700000	    -35.19640118	    504.20680642	     41.37676209	     -0.10773597	     -0.00200000	      0.13704122	      0.00000000	      0.59007798	      0.00000000	      0.00000000	      0.00000000	      0.00000000	      0.00000000	      0.00000000	      0.00000000	      0.00000000	      0.00000000	      0.00000000
      0.78800000	    -34.78996083	    501.89375877	     40.85176885	     -0.10701406	     -0.00200000	      0.13698520	      0.00000000	      0.55420285	      0.00000000	      0.00000000	      0.00000000	      0.00000000	      0.00000000	      0.00000000	      0.00000000	      0.00000000	      0.00000000	      0.00000000
      0.78900000	    -34.39204209	    499.63831902	     40.32998383	     -0.10629467	     -0.00200000	      0.13693190	      0.00000000	      0.51908385	      0.00000000	      0.00000000	      0.00000000	      0.00000000	      0.00000000	      0.00000000	      0.00000000	      0.00000000	      0.00000000	      0.00000000
      0.79000000	    -34.00093317	    497.42928147	     39.81136382	     -0.10557759	     -0.00200000	      0.13688071	      0.00000000	      0.48459528	      0.00000000	      0.00000000	      0.00000000	      0.00000000	      0.00000000	      0.00000000	      0.00000000	      0.00000000	      0.00000000	      0.00000000
      0.79100000	    -33.61830860	    495.27858198	     39.29743767	     -0.10486371	     -0.00200000	      0.13683209	      0.00000000	      0.45093105	      0.00000000	      0.00000000	      0.00000000	      0.00000000	      0.00000000	      0.00000000	      0.00000000	      0.00000000	      0.00000000	      0.00000000
      0.79200000	    -33.24244544	    493.17473173	     38.78783882	     -0.10415267	     -0.00200000	      0.13678545	      0.00000000	      0.41795282	      0.00000000	      0.00000000	      0.00000000	      0.00000000	      0.00000000	      0.00000000	      0.00000000	      0.00000000	      0.00000000	      0.00000000
      0.79300000	    -32.87500143	    491.12968147	     38.28434348	     -0.10344551	     -0.00200000	      0.13674117	      0.00000000	      0.38586465	      0.00000000	      0.00000000	      0.00000000	      0.00000000	      0.00000000	      0.00000000	      0.00000000	      0.00000000	      0.00000000	      0.00000000
      0.79400000	    -32.51425177	    489.13183808	     37.78626919	     -0.10274174	     -0.00200000	      0.13669872	      0.00000000	      0.35451468	      0.00000000	      0.00000000	      0.00000000	      0.00000000	      0.00000000	      0.00000000	      0.00000000	      0.00000000	      0.00000000	      0.00000000
      0.79500000	    -32.16182254	    487.19321191	     37.29562312	     -0.10204252	     -0.00200000	      0.13665848	      0.00000000	      0.32411884	      0.00000000	      0.00000000	      0.00000000	      0.00000000	      0.00000000	      0.00000000	      0.00000000	      0.00000000	      0.00000000	      0.00000000
      0.79600000	    -31.81600943	    485.30215025	     36.81142628	     -0.10134723	     -0.00200000	      0.13661995	      0.00000000	      0.29451175	      0.00000000	      0.00000000	      0.00000000	      0.00000000	      0.00000000	      0.00000000	      0.00000000	      0.00000000	      0.00000000	      0.00000000
      0.79700000	    -31.47841804	    483.47067833	     36.33588552	     -0.10065719	     -0.00200000	      0.13658346	      0.00000000	      0.26591976	      0.00000000	      0.00000000	      0.00000000	      0.00000000	      0.00000000	      0.00000000	      0.00000000	      0.00000000	      0.00000000	      0.00000000
      0.79800000	    -31.14735894	    481.68703914	     35.86772382	     -0.09997163	     -0.00200000	      0.13654856	      0.00000000	      0.23816420	      0.00000000	      0.00000000	      0.00000000	      0.00000000	      0.00000000	      0.00000000	      0.00000000	      0.00000000	      0.00000000	      0.00000000
      0.79900000	    -30.82440421	    479.96334732	     35.40931642	     -0.09929203	     -0.00200000	      0.13651558	      0.00000000	      0.21148167	      0.00000000	      0.00000000	      0.00000000	      0.00000000	      0.00000000	      0.00000000	      0.00000000	      0.00000000	      0.00000000	      0.00000000
      0.80000000	    -30.50787933	    478.28769684	     34.95911658	     -0.09861747	     -0.00200000	      0.13648408	      0.00000000	      0.18568032	      0.00000000	      0.00000000	      0.00000000	      0.00000000	      0.00000000	      0.00000000	      0.00000000	      0.00000000	      0.00000000	      0.00000000
      0.80100000	    -30.19930888	    476.67217255	     34.51965451	     -0.09794957	     -0.00200000	      0.13645438	      0.00000000	      0.16100428	      0.00000000	      0.00000000	      0.00000000	      0.00000000	      0.00000000	      0.00000000	      0.00000000	      0.00000000	      0.00000000	      0.00000000
      0.80200000	    -29.89702858	    475.10480881	     34.08914506	     -0.09728728	     -0.00200000	      0.13642608	      0.00000000	      0.13724585	      0.00000000	      0.00000000	      0.00000000	      0.00000000	      0.00000000	      0.00000000	      0.00000000	      0.00000000	      0.00000000	      0.00000000
      0.80300000	    -29.60249968	    473.59764576	     33.67025107	     -0.09663236	     -0.00200000	      0.13639948	      0.00000000	      0.11465284	      0.00000000	      0.00000000	      0.00000000	      0.00000000	      0.00000000	      0.00000000	      0.00000000	      0.00000000	      0.00000000	      0.00000000
